%FSLAX25Y25*%
%MOIN*%
G70*
G01*
G75*
%ADD10C,0.00500*%
%ADD11C,0.00667*%
D10*
X37650Y27150D02*
X40650D01*
X39150Y25650D02*
Y28650D01*
X61378Y43307D02*
X71220D01*
X66299Y38386D02*
Y48228D01*
X101378Y43307D02*
X111221D01*
X106299Y38386D02*
Y48228D01*
X81378Y43307D02*
X91220D01*
X86299Y38386D02*
Y48228D01*
X41965Y77913D02*
X43933D01*
X42949Y76929D02*
Y78898D01*
X54492Y77913D02*
X56461D01*
X55476Y76929D02*
Y78898D01*
X48228Y80508D02*
X50197D01*
X49213Y79524D02*
Y81492D01*
X39370Y71650D02*
X41339D01*
X40354Y70665D02*
Y72634D01*
X41965Y65386D02*
X43933D01*
X42949Y64402D02*
Y66370D01*
X48228Y62791D02*
X50197D01*
X49213Y61807D02*
Y63776D01*
X54492Y65386D02*
X56461D01*
X55476Y64402D02*
Y66370D01*
X57087Y71650D02*
X59055D01*
X58071Y70665D02*
Y72634D01*
X43307Y71650D02*
X55118D01*
X49213Y65744D02*
Y77555D01*
X41965Y19913D02*
X43933D01*
X42949Y18929D02*
Y20898D01*
X54492Y19913D02*
X56461D01*
X55476Y18929D02*
Y20898D01*
X48228Y22508D02*
X50197D01*
X49213Y21524D02*
Y23492D01*
X39370Y13650D02*
X41339D01*
X40354Y12665D02*
Y14634D01*
X41965Y7386D02*
X43933D01*
X42949Y6402D02*
Y8370D01*
X48228Y4791D02*
X50197D01*
X49213Y3807D02*
Y5776D01*
X54492Y7386D02*
X56461D01*
X55476Y6402D02*
Y8370D01*
X57087Y13650D02*
X59055D01*
X58071Y12665D02*
Y14634D01*
X43307Y13650D02*
X55118D01*
X49213Y7744D02*
Y19555D01*
M02*
