M48
;Layer_Color=9474304
;FILE_FORMAT=2:5
INCH,TZ
;TYPE=PLATED
T1F00S00C0.01968
T2F00S00C0.03000
T3F00S00C0.09843
T4F00S00C0.11811
%
T01
X42949Y7386
X40354Y13650
X42949Y19913
X49213Y22508
X55476Y19913
X58071Y13650
X55476Y7386
X49213Y4791
Y62791
X42949Y65386
X40354Y71650
X42949Y77913
X49213Y80508
X55476Y77913
X58071Y71650
X55476Y65386
T02
X39150Y27150
T03
X66299Y43307
X86299
X106299
T04
X49213Y13650
Y71650
M30
