%FSLAX25Y25*%
%MOIN*%
G70*
G01*
G75*
G04 Layer_Color=8388736*
%ADD10R,0.11811X0.05906*%
%ADD11R,0.11811X0.03937*%
%ADD12C,0.02000*%
%ADD13C,0.06000*%
%ADD14C,0.11811*%
%ADD15C,0.03937*%
%ADD16C,0.23622*%
%ADD17C,0.00030*%
%ADD18C,0.01000*%
%ADD19C,0.05906*%
%ADD20C,0.00787*%
%ADD21R,0.12611X0.06706*%
%ADD22R,0.12611X0.04737*%
%ADD23C,0.06800*%
%ADD24C,0.12611*%
D15*
X42949Y77913D02*
D03*
X55476D02*
D03*
X49213Y80508D02*
D03*
X40354Y71650D02*
D03*
X42949Y65386D02*
D03*
X49213Y62791D02*
D03*
X55476Y65386D02*
D03*
X58071Y71650D02*
D03*
X42949Y19913D02*
D03*
X55476D02*
D03*
X49213Y22508D02*
D03*
X40354Y13650D02*
D03*
X42949Y7386D02*
D03*
X49213Y4791D02*
D03*
X55476Y7386D02*
D03*
X58071Y13650D02*
D03*
D16*
X49213Y71650D02*
D03*
Y13650D02*
D03*
D19*
X58071Y71650D02*
G03*
X58071Y71650I-8858J0D01*
G01*
Y13650D02*
G03*
X58071Y13650I-8858J0D01*
G01*
D20*
X63150Y4650D02*
Y9373D01*
X65511D01*
X66298Y8585D01*
Y7011D01*
X65511Y6224D01*
X63150D01*
X64724D02*
X66298Y4650D01*
X68660D02*
X70234D01*
X71021Y5437D01*
Y7011D01*
X70234Y7798D01*
X68660D01*
X67873Y7011D01*
Y5437D01*
X68660Y4650D01*
X73383Y8585D02*
Y7798D01*
X72595D01*
X74170D01*
X73383D01*
Y5437D01*
X74170Y4650D01*
X77318Y7798D02*
X78893D01*
X79680Y7011D01*
Y4650D01*
X77318D01*
X76531Y5437D01*
X77318Y6224D01*
X79680D01*
X82041Y8585D02*
Y7798D01*
X81254D01*
X82828D01*
X82041D01*
Y5437D01*
X82828Y4650D01*
X85190D02*
X86764D01*
X85977D01*
Y7798D01*
X85190D01*
X89913Y4650D02*
X91487D01*
X92274Y5437D01*
Y7011D01*
X91487Y7798D01*
X89913D01*
X89126Y7011D01*
Y5437D01*
X89913Y4650D01*
X93848D02*
Y7798D01*
X96210D01*
X96997Y7011D01*
Y4650D01*
X106443Y8585D02*
X105656Y9373D01*
X104081D01*
X103294Y8585D01*
Y7798D01*
X104081Y7011D01*
X105656D01*
X106443Y6224D01*
Y5437D01*
X105656Y4650D01*
X104081D01*
X103294Y5437D01*
X110378Y4650D02*
X108804D01*
X108017Y5437D01*
Y7011D01*
X108804Y7798D01*
X110378D01*
X111166Y7011D01*
Y6224D01*
X108017D01*
X112740Y4650D02*
Y7798D01*
X115101D01*
X115889Y7011D01*
Y4650D01*
X117463D02*
X119824D01*
X120611Y5437D01*
X119824Y6224D01*
X118250D01*
X117463Y7011D01*
X118250Y7798D01*
X120611D01*
X122973Y4650D02*
X124547D01*
X125334Y5437D01*
Y7011D01*
X124547Y7798D01*
X122973D01*
X122186Y7011D01*
Y5437D01*
X122973Y4650D01*
X126909Y7798D02*
Y4650D01*
Y6224D01*
X127696Y7011D01*
X128483Y7798D01*
X129270D01*
D21*
X8465Y59842D02*
D03*
Y26772D02*
D03*
D22*
X28150Y51181D02*
D03*
Y43307D02*
D03*
Y35433D02*
D03*
D23*
X39150Y27150D02*
D03*
D24*
X66299Y43307D02*
D03*
X106299D02*
D03*
X86299D02*
D03*
M02*
