%FSLAX25Y25*%
%MOIN*%
G70*
G01*
G75*
G04 Layer_Physical_Order=2*
G04 Layer_Color=16711680*
%ADD10R,0.11811X0.05906*%
%ADD11R,0.11811X0.03937*%
%ADD12C,0.02000*%
%ADD13C,0.06000*%
%ADD14C,0.11811*%
%ADD15C,0.03937*%
%ADD16C,0.23622*%
G36*
X132235Y1624D02*
X55135D01*
X54990Y2102D01*
X58449Y4413D01*
X61280Y8651D01*
X62275Y13650D01*
X61280Y18648D01*
X58449Y22886D01*
X54211Y25717D01*
X49213Y26712D01*
X44214Y25717D01*
X43094Y24969D01*
X42707Y25286D01*
X43272Y26650D01*
X39650D01*
Y22679D01*
X39753Y22552D01*
X37145Y18648D01*
X36151Y13650D01*
X37145Y8651D01*
X39976Y4413D01*
X43435Y2102D01*
X43290Y1624D01*
X1624D01*
Y84991D01*
X48065D01*
X48114Y84493D01*
X44214Y83717D01*
X39976Y80886D01*
X37145Y76648D01*
X36151Y71650D01*
X37145Y66651D01*
X39976Y62413D01*
X44214Y59582D01*
X49213Y58588D01*
X54211Y59582D01*
X58449Y62413D01*
X61280Y66651D01*
X62275Y71650D01*
X61280Y76648D01*
X58449Y80886D01*
X54211Y83717D01*
X50312Y84493D01*
X50361Y84991D01*
X132235D01*
Y1624D01*
D02*
G37*
%LPC*%
G36*
X39650Y31272D02*
Y27650D01*
X43272D01*
X42211Y30211D01*
X39650Y31272D01*
D02*
G37*
G36*
X66299Y50348D02*
X63605Y49812D01*
X61321Y48286D01*
X59794Y46001D01*
X59258Y43307D01*
X59794Y40613D01*
X61321Y38328D01*
X63605Y36802D01*
X66299Y36266D01*
X68994Y36802D01*
X71278Y38328D01*
X72804Y40613D01*
X73340Y43307D01*
X72804Y46001D01*
X71278Y48286D01*
X68994Y49812D01*
X66299Y50348D01*
D02*
G37*
G36*
X38650Y26650D02*
X35027D01*
X36088Y24088D01*
X38650Y23027D01*
Y26650D01*
D02*
G37*
G36*
Y31272D02*
X36088Y30211D01*
X35027Y27650D01*
X38650D01*
Y31272D01*
D02*
G37*
G36*
X106299Y50348D02*
X103605Y49812D01*
X101321Y48286D01*
X99794Y46001D01*
X99258Y43307D01*
X99794Y40613D01*
X101321Y38328D01*
X103605Y36802D01*
X106299Y36266D01*
X108994Y36802D01*
X111278Y38328D01*
X112804Y40613D01*
X113340Y43307D01*
X112804Y46001D01*
X111278Y48286D01*
X108994Y49812D01*
X106299Y50348D01*
D02*
G37*
G36*
X85799Y50248D02*
X83605Y49812D01*
X81321Y48286D01*
X79794Y46001D01*
X79358Y43807D01*
X85799D01*
Y50248D01*
D02*
G37*
G36*
X86799D02*
Y43807D01*
X93240D01*
X92804Y46001D01*
X91278Y48286D01*
X88994Y49812D01*
X86799Y50248D01*
D02*
G37*
G36*
X85799Y42807D02*
X79358D01*
X79794Y40613D01*
X81321Y38328D01*
X83605Y36802D01*
X85799Y36366D01*
Y42807D01*
D02*
G37*
G36*
X93240D02*
X86799D01*
Y36366D01*
X88994Y36802D01*
X91278Y38328D01*
X92804Y40613D01*
X93240Y42807D01*
D02*
G37*
%LPD*%
D13*
X39150Y27150D02*
D03*
D14*
X66299Y43307D02*
D03*
X106299D02*
D03*
X86299D02*
D03*
D15*
X42949Y77913D02*
D03*
X55476D02*
D03*
X49213Y80508D02*
D03*
X40354Y71650D02*
D03*
X42949Y65386D02*
D03*
X49213Y62791D02*
D03*
X55476Y65386D02*
D03*
X58071Y71650D02*
D03*
X42949Y19913D02*
D03*
X55476D02*
D03*
X49213Y22508D02*
D03*
X40354Y13650D02*
D03*
X42949Y7386D02*
D03*
X49213Y4791D02*
D03*
X55476Y7386D02*
D03*
X58071Y13650D02*
D03*
D16*
X49213Y71650D02*
D03*
Y13650D02*
D03*
M02*
